HIERARCHY
ROOT joint_0
{
	OFFSET 0.000000 0.000000 0.000000
	CHANNELS 6 Xposition Yposition Zposition Zrotation Yrotation Xrotation 
	JOINT joint_1
	{
		OFFSET -0.613770 -1.125488 108.300049
		CHANNELS 3 Zrotation Yrotation Xrotation
		JOINT joint_2
		{
			OFFSET -10.925537 -0.900513 98.259033
			CHANNELS 3 Zrotation Yrotation Xrotation
			JOINT joint_3
			{
				OFFSET -11.287842 0.313599 98.110962
				CHANNELS 3 Zrotation Yrotation Xrotation
				JOINT joint_4
				{
					OFFSET -2.124268 2.484680 136.491943
					CHANNELS 3 Zrotation Yrotation Xrotation
					JOINT joint_5
					{
						OFFSET 16.640869 1.801270 81.862061
						CHANNELS 3 Zrotation Yrotation Xrotation
						End Site
						{
							OFFSET 0.000000 0.000000 0.000000
						}
					}
				}
				JOINT joint_6
				{
					OFFSET 0.447998 -28.248108 77.258057
					CHANNELS 3 Zrotation Yrotation Xrotation
					JOINT joint_7
					{
						OFFSET 7.918701 -130.256348 -24.086060
						CHANNELS 3 Zrotation Yrotation Xrotation
						JOINT joint_8
						{
							OFFSET 62.431885 -29.384277 -258.572021
							CHANNELS 3 Zrotation Yrotation Xrotation
							JOINT joint_9
							{
								OFFSET 53.743164 -21.907532 -238.024963
								CHANNELS 3 Zrotation Yrotation Xrotation
								End Site
								{
									OFFSET 0.000000 0.000000 0.000000
								}
							}
						}
					}
				}
				JOINT joint_10
				{
					OFFSET -2.846924 31.052063 76.130981
					CHANNELS 3 Zrotation Yrotation Xrotation
					JOINT joint_11
					{
						OFFSET 9.073730 131.055603 -18.752930
						CHANNELS 3 Zrotation Yrotation Xrotation
						JOINT joint_12
						{
							OFFSET 52.981201 29.883301 -260.613037
							CHANNELS 3 Zrotation Yrotation Xrotation
							JOINT joint_13
							{
								OFFSET 62.237793 15.935547 -236.423035
								CHANNELS 3 Zrotation Yrotation Xrotation
								End Site
								{
									OFFSET 0.000000 0.000000 0.000000
								}
							}
						}
					}
				}
			}
		}
	}
	JOINT joint_14
	{
		OFFSET 22.046143 -72.816772 -98.122925
		CHANNELS 3 Zrotation Yrotation Xrotation
		JOINT joint_15
		{
			OFFSET -23.673828 -54.692932 -469.927032
			CHANNELS 3 Zrotation Yrotation Xrotation
			JOINT joint_16
			{
				OFFSET -34.875244 -46.505249 -395.890999
				CHANNELS 3 Zrotation Yrotation Xrotation
				JOINT joint_17
				{
					OFFSET 168.486328 14.224182 -74.182999
					CHANNELS 3 Zrotation Yrotation Xrotation
					End Site
					{
						OFFSET 0.000000 0.000000 0.000000
					}
				}
			}
		}
	}
	JOINT joint_18
	{
		OFFSET -1.731934 82.408569 -92.846924
		CHANNELS 3 Zrotation Yrotation Xrotation
		JOINT joint_19
		{
			OFFSET -6.908936 32.203369 -472.535034
			CHANNELS 3 Zrotation Yrotation Xrotation
			JOINT joint_20
			{
				OFFSET -13.963135 23.196533 -399.207993
				CHANNELS 3 Zrotation Yrotation Xrotation
				JOINT joint_21
				{
					OFFSET 168.417725 19.834229 -73.041004
					CHANNELS 3 Zrotation Yrotation Xrotation
					End Site
					{
						OFFSET 0.000000 0.000000 0.000000
					}
				}
			}
		}
	}
}
MOTION
Frames: 18
Frame Time: 0.016667
-2428.309082 858.160522 1061.948975 -0.537071 2.921690 -2.473795 1.890243 0.036960 3.416747 1.470607 -0.041148 -0.762914 1.610673 0.013026 0.392127 -0.029467 1.045785 0.008464 0.000000 0.000000 0.000000 -0.012479 0.960483 -1.519205 0.281089 1.115639 1.986086 0.484768 -1.994473 1.352365 0.000000 0.000000 0.000000 3.573651 0.453203 -1.165551 0.027828 -0.270748 1.953625 -1.339359 -0.141597 -4.861532 0.000000 0.000000 0.000000 1.293178 -7.684023 7.468080 0.693413 2.033308 -0.137963 0.817954 0.715567 0.293905 0.000000 0.000000 0.000000 1.200518 -5.764378 0.491912 1.850230 2.729554 -0.730464 1.608169 -0.701606 0.777047 0.000000 0.000000 0.000000 
-2428.622314 858.405151 1061.949951 -0.625357 2.896994 -2.459158 1.893304 0.025833 3.318533 1.485294 -0.044653 -0.745271 1.621439 0.018366 0.377803 -0.037691 1.061133 0.046945 0.000000 0.000000 0.000000 -0.045001 0.970370 -1.456419 0.290111 1.117156 2.036613 0.505475 -2.067216 1.416643 0.000000 0.000000 0.000000 3.560843 0.468888 -1.153004 0.055248 -0.252567 2.009444 -1.276665 -0.084906 -4.655056 0.000000 0.000000 0.000000 1.326630 -7.677484 7.443183 0.729558 1.993917 -0.128529 0.831343 0.883382 0.285417 0.000000 0.000000 0.000000 1.235877 -5.677153 0.469355 1.868601 2.578536 -0.754387 1.636742 -0.643501 0.782616 0.000000 0.000000 0.000000 
-2428.853027 858.644836 1061.942993 -0.717928 2.869057 -2.443837 1.886302 0.003100 3.221664 1.490216 -0.042423 -0.726630 1.622452 0.019598 0.364211 -0.044396 1.080082 0.077712 0.000000 0.000000 0.000000 -0.072935 0.975049 -1.397774 0.304049 1.114582 2.101700 0.519118 -2.125232 1.454839 0.000000 0.000000 0.000000 3.546569 0.493593 -1.142715 0.081864 -0.224006 2.045198 -1.200906 -0.004298 -4.408020 0.000000 0.000000 0.000000 1.356757 -7.664668 7.418687 0.762460 1.956653 -0.116721 0.841296 1.058232 0.274839 0.000000 0.000000 0.000000 1.273799 -5.583061 0.443587 1.889098 2.431411 -0.773075 1.667272 -0.588088 0.789348 0.000000 0.000000 0.000000 
-2428.965820 858.889893 1061.927979 -0.814978 2.832537 -2.431050 1.866495 -0.032615 3.131563 1.482154 -0.036175 -0.706580 1.610263 0.013394 0.349935 -0.049314 1.106715 0.098995 0.000000 0.000000 0.000000 -0.092341 0.973030 -1.342877 0.325135 1.107047 2.186628 0.520617 -2.147733 1.452196 0.000000 0.000000 0.000000 3.527218 0.535573 -1.136505 0.108433 -0.176054 2.057264 -1.108689 0.104280 -4.108722 0.000000 0.000000 0.000000 1.382217 -7.638856 7.397620 0.791159 1.925201 -0.102910 0.848047 1.232890 0.262890 0.000000 0.000000 0.000000 1.315724 -5.472556 0.414404 1.912074 2.284544 -0.780937 1.700470 -0.535595 0.797581 0.000000 0.000000 0.000000 
-2428.996094 859.129028 1061.905029 -0.916576 2.792106 -2.417745 1.837080 -0.078666 3.042823 1.464864 -0.025040 -0.684628 1.588658 0.003062 0.335617 -0.052591 1.136793 0.112029 0.000000 0.000000 0.000000 -0.108007 0.966172 -1.292473 0.351250 1.095670 2.286705 0.515002 -2.155546 1.423183 0.000000 0.000000 0.000000 3.504677 0.586564 -1.133450 0.133888 -0.117658 2.050406 -1.003734 0.237986 -3.768495 0.000000 0.000000 0.000000 1.404550 -7.606182 7.377174 0.816880 1.896052 -0.086862 0.851663 1.414253 0.249009 0.000000 0.000000 0.000000 1.360378 -5.354631 0.382484 1.937353 2.142057 -0.784019 1.735688 -0.486832 0.807126 0.000000 0.000000 0.000000 
-2429.031738 859.345276 1061.876953 -1.017753 2.754155 -2.401554 1.806668 -0.117897 2.956100 1.445954 -0.018243 -0.664761 1.565861 -0.004125 0.323116 -0.055830 1.166740 0.124928 0.000000 0.000000 0.000000 -0.125265 0.960448 -1.245149 0.371662 1.085302 2.368739 0.518731 -2.186851 1.426945 0.000000 0.000000 0.000000 3.485202 0.629033 -1.137249 0.156576 -0.069426 2.048444 -0.906995 0.371739 -3.455424 0.000000 0.000000 0.000000 1.428885 -7.577348 7.352308 0.843227 1.872060 -0.070488 0.858730 1.574748 0.238397 0.000000 0.000000 0.000000 1.404295 -5.250176 0.349325 1.964367 2.021688 -0.787813 1.770943 -0.446569 0.817679 0.000000 0.000000 0.000000 
-2429.096436 859.519653 1061.840942 -1.113750 2.724895 -2.380089 1.776620 -0.150543 2.869609 1.426679 -0.016869 -0.649433 1.543486 -0.004410 0.313056 -0.059814 1.194751 0.141690 0.000000 0.000000 0.000000 -0.150101 0.957587 -1.198706 0.382758 1.076451 2.422123 0.539170 -2.262705 1.488232 0.000000 0.000000 0.000000 3.467887 0.655232 -1.149603 0.176611 -0.039797 2.061617 -0.822110 0.508818 -3.183975 0.000000 0.000000 0.000000 1.456446 -7.560898 7.319382 0.869973 1.857518 -0.053955 0.871289 1.697671 0.233362 0.000000 0.000000 0.000000 1.445954 -5.169420 0.315508 1.992757 1.927333 -0.797136 1.805344 -0.417329 0.829149 0.000000 0.000000 0.000000 
-2429.165527 859.670410 1061.797974 -1.209920 2.697460 -2.355357 1.745226 -0.176211 2.784248 1.405587 -0.018469 -0.635794 1.519692 -0.002366 0.304876 -0.063306 1.221685 0.156227 0.000000 0.000000 0.000000 -0.174715 0.955671 -1.155717 0.388269 1.068765 2.457866 0.569020 -2.361973 1.582525 0.000000 0.000000 0.000000 3.455349 0.672884 -1.167878 0.193985 -0.020443 2.078786 -0.745078 0.646123 -2.939420 0.000000 0.000000 0.000000 1.486325 -7.547471 7.281693 0.897791 1.847990 -0.037262 0.887782 1.798913 0.231880 0.000000 0.000000 0.000000 1.487385 -5.101177 0.280135 2.023309 1.854896 -0.807424 1.840115 -0.397568 0.841887 0.000000 0.000000 0.000000 
-2429.242676 859.832214 1061.759033 -1.312437 2.660114 -2.334350 1.720221 -0.187505 2.710720 1.389114 -0.020991 -0.624642 1.500939 0.002280 0.297786 -0.065828 1.245099 0.166513 0.000000 0.000000 0.000000 -0.197897 0.956312 -1.120499 0.389040 1.064208 2.476722 0.602488 -2.462075 1.692752 0.000000 0.000000 0.000000 3.442782 0.683697 -1.185016 0.207125 -0.008050 2.090671 -0.683932 0.752350 -2.743630 0.000000 0.000000 0.000000 1.519269 -7.520744 7.248244 0.930949 1.832019 -0.022625 0.908628 1.899020 0.232381 0.000000 0.000000 0.000000 1.529812 -5.036524 0.246680 2.057089 1.813476 -0.812547 1.875685 -0.392746 0.856716 0.000000 0.000000 0.000000 
-2429.337158 860.018066 1061.725952 -1.423788 2.600397 -2.318898 1.702799 -0.169170 2.651829 1.378004 -0.023327 -0.614380 1.487804 0.007865 0.291952 -0.066942 1.263408 0.170589 0.000000 0.000000 0.000000 -0.213463 0.958324 -1.095441 0.383085 1.062804 2.471422 0.641888 -2.563019 1.829440 0.000000 0.000000 0.000000 3.432335 0.687762 -1.198084 0.215121 -0.002256 2.090185 -0.640609 0.814722 -2.601231 0.000000 0.000000 0.000000 1.554827 -7.463368 7.223025 0.972298 1.798920 -0.012611 0.933925 2.009213 0.233954 0.000000 0.000000 0.000000 1.574040 -4.967229 0.215613 2.094901 1.813762 -0.809581 1.912085 -0.407477 0.874191 0.000000 0.000000 0.000000 
-2429.439941 860.216003 1061.696045 -1.542101 2.530172 -2.306645 1.691242 -0.135026 2.603885 1.371221 -0.027176 -0.604921 1.478945 0.015871 0.284955 -0.067310 1.278338 0.171471 0.000000 0.000000 0.000000 -0.225054 0.962352 -1.077043 0.372320 1.064379 2.448911 0.684738 -2.664363 1.981581 0.000000 0.000000 0.000000 3.424426 0.685046 -1.208231 0.219056 -0.003498 2.083078 -0.612557 0.845705 -2.506555 0.000000 0.000000 0.000000 1.593455 -7.392238 7.201403 1.018994 1.759572 -0.004470 0.963637 2.118129 0.237550 0.000000 0.000000 0.000000 1.619666 -4.900696 0.185801 2.136237 1.844644 -0.801268 1.949617 -0.436725 0.893851 0.000000 0.000000 0.000000 
-2429.534180 860.418030 1061.668945 -1.668403 2.472098 -2.296149 1.685466 -0.116922 2.560306 1.370153 -0.028692 -0.596010 1.475997 0.019935 0.278695 -0.066810 1.297882 0.167504 0.000000 0.000000 0.000000 -0.237483 0.972602 -1.064913 0.363383 1.072365 2.431658 0.718068 -2.741762 2.100192 0.000000 0.000000 0.000000 3.420730 0.680429 -1.220106 0.220802 -0.007933 2.079633 -0.601063 0.850339 -2.465956 0.000000 0.000000 0.000000 1.637089 -7.340876 7.178296 1.066669 1.735132 0.006803 0.998296 2.208302 0.244883 0.000000 0.000000 0.000000 1.666919 -4.849791 0.156563 2.180864 1.882489 -0.791118 1.989879 -0.469234 0.915068 0.000000 0.000000 0.000000 
-2429.609375 860.628418 1061.650024 -1.809889 2.440271 -2.288217 1.686832 -0.135493 2.519557 1.377269 -0.027427 -0.583236 1.480404 0.018519 0.268958 -0.065322 1.329094 0.157215 0.000000 0.000000 0.000000 -0.248242 0.992204 -1.060795 0.359190 1.090594 2.430814 0.736747 -2.785318 2.165936 0.000000 0.000000 0.000000 3.427765 0.677396 -1.234964 0.221371 -0.013474 2.086997 -0.610108 0.823253 -2.492938 0.000000 0.000000 0.000000 1.689254 -7.328605 7.151152 1.115431 1.733612 0.025821 1.039857 2.274859 0.257214 0.000000 0.000000 0.000000 1.717936 -4.826992 0.127060 2.231545 1.922704 -0.777553 2.036150 -0.500850 0.938771 0.000000 0.000000 0.000000 
-2429.676270 860.843933 1061.634033 -1.960378 2.420427 -2.282214 1.694248 -0.168975 2.483469 1.390455 -0.025818 -0.569571 1.490590 0.014520 0.257467 -0.063413 1.365380 0.144226 0.000000 0.000000 0.000000 -0.258919 1.017881 -1.061727 0.356695 1.115174 2.434680 0.745924 -2.805543 2.197984 0.000000 0.000000 0.000000 3.439960 0.672246 -1.250668 0.219832 -0.022485 2.097944 -0.635458 0.769696 -2.573306 0.000000 0.000000 0.000000 1.746601 -7.336296 7.122536 1.165218 1.747413 0.048198 1.086434 2.323056 0.273280 0.000000 0.000000 0.000000 1.770927 -4.819637 0.098077 2.285835 1.970062 -0.761920 2.085453 -0.535883 0.964181 0.000000 0.000000 0.000000 
-2429.749268 861.044495 1061.614014 -2.097484 2.396297 -2.273862 1.700444 -0.192391 2.446292 1.402125 -0.023241 -0.557817 1.499754 0.010820 0.248131 -0.061616 1.396863 0.132383 0.000000 0.000000 0.000000 -0.271182 1.042946 -1.057004 0.353515 1.138166 2.430866 0.747454 -2.808440 2.202403 0.000000 0.000000 0.000000 3.444264 0.660334 -1.265495 0.215553 -0.036979 2.102375 -0.666390 0.707406 -2.672052 0.000000 0.000000 0.000000 1.800108 -7.342694 7.094387 1.210566 1.772582 0.064677 1.131255 2.354969 0.289975 0.000000 0.000000 0.000000 1.819354 -4.807862 0.070147 2.335217 2.015440 -0.750805 2.129945 -0.569704 0.987367 0.000000 0.000000 0.000000 
-2429.840088 861.218750 1061.588989 -2.216445 2.360411 -2.260154 1.704188 -0.193293 2.403002 1.411259 -0.021451 -0.547632 1.506646 0.010961 0.239525 -0.060621 1.417034 0.125861 0.000000 0.000000 0.000000 -0.285190 1.063939 -1.036726 0.348366 1.155262 2.411859 0.740878 -2.792034 2.178027 0.000000 0.000000 0.000000 3.436667 0.637556 -1.277874 0.208335 -0.060411 2.100490 -0.701564 0.639640 -2.785046 0.000000 0.000000 0.000000 1.847818 -7.342415 7.066040 1.249547 1.815388 0.071643 1.173404 2.365597 0.307330 0.000000 0.000000 0.000000 1.862087 -4.784758 0.042174 2.378139 2.059759 -0.746650 2.167943 -0.602713 1.007652 0.000000 0.000000 0.000000 
-2429.936279 861.378235 1061.561035 -2.322057 2.320870 -2.244827 1.706420 -0.184726 2.360083 1.418384 -0.020254 -0.539754 1.511971 0.013615 0.232386 -0.059704 1.431566 0.120392 0.000000 0.000000 0.000000 -0.299510 1.083721 -1.009162 0.342135 1.170279 2.383527 0.726773 -2.757947 2.126895 0.000000 0.000000 0.000000 3.422886 0.607893 -1.290095 0.198524 -0.089814 2.093323 -0.742476 0.562651 -2.916807 0.000000 0.000000 0.000000 1.891697 -7.341728 7.039083 1.284003 1.870087 0.072470 1.213712 2.360326 0.325246 0.000000 0.000000 0.000000 1.900289 -4.757868 0.016060 2.416282 2.102314 -0.747220 2.201192 -0.635265 1.025830 0.000000 0.000000 0.000000 
-2430.025635 861.539551 1061.531006 -2.411877 2.283837 -2.233605 1.705167 -0.174258 2.328333 1.420615 -0.020890 -0.534133 1.512931 0.017368 0.227605 -0.058818 1.447017 0.114945 0.000000 0.000000 0.000000 -0.316090 1.103653 -0.985283 0.335278 1.185091 2.350789 0.708853 -2.717236 2.061356 0.000000 0.000000 0.000000 3.405604 0.576381 -1.305962 0.186383 -0.120383 2.075360 -0.783017 0.487293 -3.047582 0.000000 0.000000 0.000000 1.928898 -7.337911 7.017671 1.313708 1.916595 0.071312 1.248295 2.355094 0.340682 0.000000 0.000000 0.000000 1.933035 -4.728818 -0.003429 2.448205 2.132437 -0.752157 2.229227 -0.661232 1.040984 0.000000 0.000000 0.000000 
